<svg width="41" height="26" viewBox="0 0 41 26" fill="none" xmlns="http://www.w3.org/2000/svg">
<path d="M11.7786 9.47782C11.7329 10.9183 12.4528 11.5562 12.4706 11.9613C12.4621 12.0438 12.4341 12.123 12.3887 12.1924C12.3433 12.2618 12.282 12.3193 12.2098 12.3601L11.3958 12.9299C11.2904 13.0038 11.1662 13.0462 11.0377 13.0521C11.0104 13.0508 10.5168 13.1684 9.73522 11.4233C9.25838 12.0186 8.65163 12.4969 7.96144 12.8215C7.27126 13.1461 6.51594 13.3085 5.75331 13.2963C4.71793 13.3529 1.91195 12.7086 2.05632 9.7214C1.9552 7.28684 4.22249 5.77447 6.56737 5.9023C7.01892 5.90357 7.9411 5.92583 9.55587 6.30106V5.30765C9.72695 3.62483 8.62097 2.31915 6.70602 2.51504C6.55338 2.51567 5.47221 2.48324 3.79066 3.15802C3.32257 3.37298 3.26279 3.33737 3.10697 3.33737C2.63571 3.33737 2.82968 1.97127 2.91999 1.79828C3.25134 1.39125 5.20064 0.631246 7.11369 0.642058C8.39281 0.528954 9.66507 0.923722 10.6555 1.74104C11.058 2.1914 11.3652 2.71867 11.5583 3.291C11.7515 3.86334 11.8266 4.46888 11.7793 5.07107L11.7786 9.47782ZM6.28245 11.5378C8.34496 11.5079 9.21816 10.2677 9.41723 9.59993C9.57368 8.96076 9.54761 8.55627 9.54761 7.85732C8.93261 7.70977 8.04731 7.54887 7.03164 7.5476C6.06812 7.47509 4.30835 7.90566 4.37704 9.59929C4.29817 10.6671 5.08425 11.5963 6.28245 11.5378ZM17.1527 13.0037C16.6528 13.0495 16.4201 12.6946 16.3463 12.3442L13.1791 1.87269C13.1174 1.69589 13.0767 1.51336 13.057 1.32701C13.0453 1.25019 13.0646 1.17187 13.1106 1.10926C13.1567 1.04665 13.2257 1.00488 13.3025 0.993122C13.3177 0.990578 13.167 0.993122 14.7175 0.993122C15.2759 0.937155 15.4578 1.37662 15.5157 1.65264L17.7874 10.6092L19.8964 1.65264C19.9301 1.44785 20.0834 0.948603 20.7104 1.00139H21.8018C21.9398 0.989942 22.5084 0.96959 22.6082 1.66091L24.7337 10.732L27.0786 1.66091C27.1091 1.52226 27.2516 0.937791 27.885 1.00139H29.1392C29.1932 0.993122 29.5303 0.949875 29.4731 1.54707C29.4457 1.66472 29.6899 0.869105 26.1182 12.3525C26.0451 12.7029 25.8117 13.0578 25.3118 13.012H24.1231C23.4274 13.0851 23.3275 12.3976 23.3167 12.3283L21.2078 3.60703L19.123 12.3194C19.1128 12.3887 19.013 13.0762 18.3166 13.0031H17.1527V13.0037ZM34.5457 13.3618C34.1717 13.3624 32.3884 13.3427 30.8977 12.5802C30.7492 12.5173 30.6227 12.4117 30.5342 12.2769C30.4458 12.142 30.3994 11.984 30.401 11.8227V11.139C30.401 10.6016 30.7953 10.7002 30.9625 10.7644C31.6011 11.0226 32.0106 11.2185 32.7948 11.375C35.1257 11.8539 36.1509 11.2287 36.4021 11.09C37.2384 10.5933 37.3046 9.45683 36.736 8.86727C36.0695 8.30824 35.7515 8.28725 33.357 7.5317C33.0619 7.44966 30.5778 6.66612 30.572 4.20167C30.5332 2.40565 32.1652 0.628702 34.9934 0.643329C35.7992 0.642693 37.9463 0.905992 38.5276 1.63674C38.6135 1.76966 38.6561 1.92611 38.6497 2.08447V2.72746C38.6497 3.00983 38.5467 3.15102 38.34 3.15102C37.8496 3.09633 36.9796 2.44063 35.2135 2.46734C34.7753 2.44444 32.6765 2.52521 32.7706 4.0554C32.7433 5.26123 34.463 5.71341 34.6595 5.76556C36.9783 6.46324 37.7536 6.57899 38.6739 7.64681C39.764 9.06188 39.1763 10.7186 38.9505 11.1727C37.7371 13.557 34.5991 13.3631 34.5457 13.3618ZM37.1024 20.0307C32.6485 23.3201 26.1831 25.0709 20.6627 25.0709C13.2141 25.12 6.0165 22.3811 0.4848 17.3927C0.0695012 17.0181 0.435829 16.5048 0.940802 16.7904C7.07709 20.3005 14.0246 22.1448 21.0939 22.1403C26.3731 22.112 31.5947 21.0411 36.4587 18.989C37.2079 18.671 37.8433 19.4851 37.1024 20.0307ZM38.9588 17.9135C38.389 17.1809 35.1887 17.5714 33.7558 17.7425C33.324 17.7914 33.2508 17.4168 33.6419 17.1402C36.1903 15.3486 40.3758 15.8618 40.8566 16.4641C41.3367 17.0664 40.7262 21.2601 38.3406 23.2635C37.9743 23.5732 37.6239 23.4097 37.7867 23.0027C38.3234 21.6512 39.5286 18.6468 38.9588 17.9135Z" fill="#0A211F"/>
</svg>
