<svg width="149" height="20" viewBox="0 0 149 20" fill="none" xmlns="http://www.w3.org/2000/svg">
<path d="M10.4797 19.2104C8.58969 19.2104 6.89802 18.8021 5.40469 17.9854C3.93469 17.1687 2.77969 16.0487 1.93969 14.6254C1.09969 13.2021 0.679688 11.5687 0.679688 9.72539C0.679688 7.88206 1.09969 6.24872 1.93969 4.82539C2.77969 3.40206 3.93469 2.29372 5.40469 1.50039C6.89802 0.683724 8.58969 0.275391 10.4797 0.275391C12.1597 0.275391 13.653 0.613724 14.9597 1.29039C16.2897 1.94372 17.3164 2.92372 18.0397 4.23039L15.4847 5.87539C14.878 4.96539 14.1314 4.30039 13.2447 3.88039C12.3814 3.43706 11.448 3.21539 10.4447 3.21539C9.23135 3.21539 8.14635 3.48372 7.18969 4.02039C6.23302 4.55706 5.47469 5.31539 4.91469 6.29539C4.35469 7.25206 4.07469 8.39539 4.07469 9.72539C4.07469 11.0554 4.35469 12.2104 4.91469 13.1904C5.47469 14.1704 6.23302 14.9287 7.18969 15.4654C8.14635 16.0021 9.23135 16.2704 10.4447 16.2704C11.448 16.2704 12.3814 16.0604 13.2447 15.6404C14.1314 15.1971 14.878 14.5204 15.4847 13.6104L18.0397 15.2204C17.3164 16.5037 16.2897 17.4954 14.9597 18.1954C13.653 18.8721 12.1597 19.2104 10.4797 19.2104Z" fill="#0A211F"/>
<path d="M30.0614 19.2104C28.1947 19.2104 26.538 18.8021 25.0914 17.9854C23.6447 17.1687 22.5014 16.0487 21.6614 14.6254C20.8214 13.1787 20.4014 11.5454 20.4014 9.72539C20.4014 7.88206 20.8214 6.24872 21.6614 4.82539C22.5014 3.40206 23.6447 2.29372 25.0914 1.50039C26.538 0.683724 28.1947 0.275391 30.0614 0.275391C31.9047 0.275391 33.5497 0.683724 34.9964 1.50039C36.4664 2.29372 37.6097 3.40206 38.4264 4.82539C39.2664 6.22539 39.6864 7.85872 39.6864 9.72539C39.6864 11.5687 39.2664 13.2021 38.4264 14.6254C37.6097 16.0487 36.4664 17.1687 34.9964 17.9854C33.5497 18.8021 31.9047 19.2104 30.0614 19.2104ZM30.0614 16.2704C31.2514 16.2704 32.313 16.0021 33.2464 15.4654C34.203 14.9287 34.9497 14.1704 35.4864 13.1904C36.023 12.1871 36.2914 11.0321 36.2914 9.72539C36.2914 8.39539 36.023 7.25206 35.4864 6.29539C34.9497 5.31539 34.203 4.55706 33.2464 4.02039C32.313 3.48372 31.2514 3.21539 30.0614 3.21539C28.8714 3.21539 27.8097 3.48372 26.8764 4.02039C25.943 4.55706 25.1964 5.31539 24.6364 6.29539C24.0764 7.25206 23.7964 8.39539 23.7964 9.72539C23.7964 11.0321 24.0764 12.1871 24.6364 13.1904C25.1964 14.1704 25.943 14.9287 26.8764 15.4654C27.8097 16.0021 28.8714 16.2704 30.0614 16.2704Z" fill="#0A211F"/>
<path d="M52.1382 19.2104C50.5515 19.2104 49.1515 18.9187 47.9382 18.3354C46.7482 17.7521 45.8148 16.8654 45.1382 15.6754C44.4848 14.4621 44.1582 12.9454 44.1582 11.1254V0.45039H47.5182V10.7404C47.5182 12.5604 47.9498 13.9254 48.8132 14.8354C49.6998 15.7454 50.9365 16.2004 52.5232 16.2004C53.6898 16.2004 54.7048 15.9671 55.5682 15.5004C56.4315 15.0104 57.0965 14.3104 57.5632 13.4004C58.0298 12.4671 58.2632 11.3471 58.2632 10.0404V0.45039H61.6232V19.0004H58.4382V13.9954L58.9632 15.3254C58.3565 16.5621 57.4465 17.5187 56.2332 18.1954C55.0198 18.8721 53.6548 19.2104 52.1382 19.2104Z" fill="#0A211F"/>
<path d="M68.0197 19.0004V0.45039H71.2397V5.49039L70.9247 4.23039C71.438 2.94706 72.3014 1.96706 73.5147 1.29039C74.728 0.613724 76.2214 0.275391 77.9947 0.275391V3.53039C77.8547 3.50706 77.7147 3.49539 77.5747 3.49539C77.458 3.49539 77.3414 3.49539 77.2247 3.49539C75.428 3.49539 74.0047 4.03206 72.9547 5.10539C71.9047 6.17872 71.3797 7.73039 71.3797 9.76039V19.0004H68.0197Z" fill="#0A211F"/>
<path d="M87.661 19.2104C86.121 19.2104 84.651 19.0004 83.251 18.5804C81.8743 18.1604 80.7893 17.6471 79.996 17.0404L81.396 14.3804C82.1893 14.9171 83.1693 15.3721 84.336 15.7454C85.5026 16.1187 86.6926 16.3054 87.906 16.3054C89.4693 16.3054 90.5893 16.0837 91.266 15.6404C91.966 15.1971 92.316 14.5787 92.316 13.7854C92.316 13.2021 92.106 12.7471 91.686 12.4204C91.266 12.0937 90.706 11.8487 90.006 11.6854C89.3293 11.5221 88.571 11.3821 87.731 11.2654C86.891 11.1254 86.051 10.9621 85.211 10.7754C84.371 10.5654 83.601 10.2854 82.901 9.93539C82.201 9.56206 81.641 9.06039 81.221 8.43039C80.801 7.77706 80.591 6.91372 80.591 5.84039C80.591 4.72039 80.906 3.74039 81.536 2.90039C82.166 2.06039 83.0526 1.41872 84.196 0.97539C85.3626 0.508724 86.7393 0.275391 88.326 0.275391C89.5393 0.275391 90.7643 0.427057 92.001 0.730391C93.261 1.01039 94.2876 1.41872 95.081 1.95539L93.646 4.61539C92.806 4.05539 91.931 3.67039 91.021 3.46039C90.111 3.25039 89.201 3.14539 88.291 3.14539C86.821 3.14539 85.7243 3.39039 85.001 3.88039C84.2776 4.34706 83.916 4.95372 83.916 5.70039C83.916 6.33039 84.126 6.82039 84.546 7.17039C84.9893 7.49706 85.5493 7.75372 86.226 7.94039C86.926 8.12706 87.696 8.29039 88.536 8.43039C89.376 8.54706 90.216 8.71039 91.056 8.92039C91.896 9.10706 92.6543 9.37539 93.331 9.72539C94.031 10.0754 94.591 10.5654 95.011 11.1954C95.4543 11.8254 95.676 12.6654 95.676 13.7154C95.676 14.8354 95.3493 15.8037 94.696 16.6204C94.0426 17.4371 93.121 18.0787 91.931 18.5454C90.741 18.9887 89.3176 19.2104 87.661 19.2104Z" fill="#0A211F"/>
<path d="M108.135 19.2104C106.152 19.2104 104.402 18.8021 102.885 17.9854C101.392 17.1687 100.225 16.0487 99.3852 14.6254C98.5685 13.2021 98.1602 11.5687 98.1602 9.72539C98.1602 7.88206 98.5568 6.24872 99.3502 4.82539C100.167 3.40206 101.275 2.29372 102.675 1.50039C104.098 0.683724 105.697 0.275391 107.47 0.275391C109.267 0.275391 110.853 0.672057 112.23 1.46539C113.607 2.25872 114.68 3.37872 115.45 4.82539C116.243 6.24872 116.64 7.91706 116.64 9.83039C116.64 9.97039 116.628 10.1337 116.605 10.3204C116.605 10.5071 116.593 10.6821 116.57 10.8454H100.785V8.43039H114.82L113.455 9.27039C113.478 8.08039 113.233 7.01872 112.72 6.08539C112.207 5.15206 111.495 4.42872 110.585 3.91539C109.698 3.37872 108.66 3.11039 107.47 3.11039C106.303 3.11039 105.265 3.37872 104.355 3.91539C103.445 4.42872 102.733 5.16372 102.22 6.12039C101.707 7.05372 101.45 8.12706 101.45 9.34039V9.90039C101.45 11.1371 101.73 12.2454 102.29 13.2254C102.873 14.1821 103.678 14.9287 104.705 15.4654C105.732 16.0021 106.91 16.2704 108.24 16.2704C109.337 16.2704 110.328 16.0837 111.215 15.7104C112.125 15.3371 112.918 14.7771 113.595 14.0304L115.45 16.2004C114.61 17.1804 113.56 17.9271 112.3 18.4404C111.063 18.9537 109.675 19.2104 108.135 19.2104Z" fill="#0A211F"/>
<path d="M121.306 19.0004V0.45039H124.526V5.49039L124.211 4.23039C124.724 2.94706 125.587 1.96706 126.801 1.29039C128.014 0.613724 129.507 0.275391 131.281 0.275391V3.53039C131.141 3.50706 131.001 3.49539 130.861 3.49539C130.744 3.49539 130.627 3.49539 130.511 3.49539C128.714 3.49539 127.291 4.03206 126.241 5.10539C125.191 6.17872 124.666 7.73039 124.666 9.76039V19.0004H121.306Z" fill="#0A211F"/>
<path d="M145.57 19.0004V15.0804L145.395 14.3454V7.66039C145.395 6.23706 144.975 5.14039 144.135 4.37039C143.318 3.57706 142.082 3.18039 140.425 3.18039C139.328 3.18039 138.255 3.36706 137.205 3.74039C136.155 4.09039 135.268 4.56872 134.545 5.17539L133.145 2.65539C134.102 1.88539 135.245 1.30206 136.575 0.905391C137.928 0.485391 139.34 0.275391 140.81 0.275391C143.353 0.275391 145.313 0.893724 146.69 2.13039C148.067 3.36706 148.755 5.25706 148.755 7.80039V19.0004H145.57ZM139.48 19.2104C138.103 19.2104 136.89 18.9771 135.84 18.5104C134.813 18.0437 134.02 17.4021 133.46 16.5854C132.9 15.7454 132.62 14.8004 132.62 13.7504C132.62 12.7471 132.853 11.8371 133.32 11.0204C133.81 10.2037 134.592 9.55039 135.665 9.06039C136.762 8.57039 138.232 8.32539 140.075 8.32539H145.955V10.7404H140.215C138.535 10.7404 137.403 11.0204 136.82 11.5804C136.237 12.1404 135.945 12.8171 135.945 13.6104C135.945 14.5204 136.307 15.2554 137.03 15.8154C137.753 16.3521 138.757 16.6204 140.04 16.6204C141.3 16.6204 142.397 16.3404 143.33 15.7804C144.287 15.2204 144.975 14.4037 145.395 13.3304L146.06 15.6404C145.617 16.7371 144.835 17.6121 143.715 18.2654C142.595 18.8954 141.183 19.2104 139.48 19.2104Z" fill="#0A211F"/>
</svg>
