<svg width="77" height="26" viewBox="0 0 77 26" fill="none" xmlns="http://www.w3.org/2000/svg">
<g clip-path="url(#clip0_294_324)">
<path d="M73.8209 15.5914L75.9085 16.9831C75.231 17.9811 73.6104 19.6934 70.8086 19.6934C67.3293 19.6934 64.7383 17.0015 64.7383 13.5771C64.7383 9.93309 67.3568 7.46094 70.5157 7.46094C73.6927 7.46094 75.2492 9.98791 75.7529 11.3522L76.0276 12.0481L67.8421 15.4358C68.4647 16.6627 69.4354 17.2853 70.8086 17.2853C72.1821 17.2853 73.1342 16.6078 73.8209 15.5914ZM67.4027 13.385L72.8688 11.1142C72.5666 10.3543 71.6694 9.81419 70.598 9.81419C69.2339 9.81419 67.3386 11.0228 67.4027 13.385Z" fill="#0A211F"/>
<path d="M60.7891 1.22656H63.4258V19.1357H60.7891V1.22656Z" fill="#0A211F"/>
<path d="M56.6315 7.9383H59.1768V18.8156C59.1768 23.3294 56.5124 25.1881 53.3627 25.1881C50.3963 25.1881 48.6109 23.1922 47.9425 21.5716L50.2772 20.601C50.6983 21.5989 51.7147 22.7802 53.3627 22.7802C55.3861 22.7802 56.6315 21.5257 56.6315 19.1819V18.303H56.5399C55.9355 19.0354 54.7819 19.6945 53.317 19.6945C50.2589 19.6945 47.457 17.0302 47.457 13.5968C47.457 10.1449 50.2589 7.45312 53.317 7.45312C54.7728 7.45312 55.9355 8.1032 56.5399 8.81737H56.6315V7.9383ZM56.8145 13.5968C56.8145 11.4359 55.377 9.86105 53.5458 9.86105C51.6963 9.86105 50.1398 11.4359 50.1398 13.5968C50.1398 15.73 51.6963 17.2774 53.5458 17.2774C55.3772 17.2866 56.8146 15.73 56.8146 13.5968" fill="#0A211F"/>
<path d="M32.9823 13.551C32.9823 17.0761 30.2356 19.6672 26.8662 19.6672C23.4969 19.6672 20.75 17.067 20.75 13.551C20.75 10.0077 23.4969 7.42578 26.8662 7.42578C30.2356 7.42578 32.9823 10.0077 32.9823 13.551ZM30.3088 13.551C30.3088 11.3537 28.7156 9.84282 26.8662 9.84282C25.0167 9.84282 23.4235 11.3537 23.4235 13.551C23.4235 15.7301 25.0167 17.2593 26.8662 17.2593C28.7157 17.2593 30.3088 15.7301 30.3088 13.551Z" fill="#0A211F"/>
<path d="M46.3417 13.5771C46.3417 17.1022 43.5948 19.6932 40.2255 19.6932C36.8561 19.6932 34.1094 17.102 34.1094 13.5771C34.1094 10.0338 36.8561 7.46094 40.2255 7.46094C43.5948 7.46094 46.3417 10.0247 46.3417 13.5771ZM43.6589 13.5771C43.6589 11.3798 42.0658 9.86886 40.2163 9.86886C38.3667 9.86886 36.7736 11.3798 36.7736 13.5771C36.7736 15.7562 38.3669 17.2853 40.2163 17.2853C42.0749 17.2853 43.6589 15.7471 43.6589 13.5771Z" fill="#0A211F"/>
<path d="M10.6974 17.0108C6.86099 17.0108 3.85795 13.916 3.85795 10.0796C3.85795 6.24339 6.86099 3.14864 10.6974 3.14864C12.7667 3.14864 14.2773 3.96348 15.3943 5.00731L17.2348 3.16701C15.6783 1.67461 13.5999 0.539062 10.6974 0.539062C5.44192 0.539209 1.01953 4.82432 1.01953 10.0796C1.01953 15.3349 5.44192 19.6202 10.6974 19.6202C13.5358 19.6202 15.6783 18.6863 17.3538 16.9467C19.0751 15.2253 19.6061 12.8081 19.6061 10.8488C19.6061 10.2353 19.5329 9.60358 19.4505 9.13663H10.6974V11.682H16.9326C16.7495 13.2752 16.2459 14.3648 15.5043 15.1063C14.607 16.0128 13.1879 17.0108 10.6974 17.0108Z" fill="#0A211F"/>
</g>
<defs>
<clipPath id="clip0_294_324">
<rect width="75.2534" height="24.6921" fill="white" transform="translate(0.910156 0.501953)"/>
</clipPath>
</defs>
</svg>
