<svg width="107" height="32" viewBox="0 0 107 32" fill="none" xmlns="http://www.w3.org/2000/svg">
<path d="M10.0591 18.9157C10.0591 19.9945 10.2964 20.8229 10.6067 21.324C11.0134 21.9803 11.6201 22.2584 12.2386 22.2584C13.0363 22.2584 13.7662 22.0609 15.1726 20.1203C16.2993 18.5649 17.6269 16.3816 18.5202 15.0129L20.033 12.694C21.0839 11.0835 22.3003 9.29328 23.6948 8.07973C24.8334 7.08931 26.0615 6.53906 27.2975 6.53906C29.3727 6.53906 31.3494 7.7388 32.8622 9.98894C34.5178 12.4532 35.3215 15.5572 35.3215 18.7604C35.3215 20.6647 34.9452 22.0639 34.3051 23.1692C33.6866 24.2383 32.481 25.3064 30.4531 25.3064V22.2584C32.1895 22.2584 32.6229 20.6666 32.6229 18.8449C32.6229 16.2489 32.0162 13.368 30.6797 11.3095C29.7313 9.84942 28.502 8.95723 27.1498 8.95723C25.6872 8.95723 24.5104 10.0577 23.1876 12.0199C22.4844 13.0625 21.7625 14.3329 20.9519 15.7665L20.0596 17.3435C18.2671 20.5143 17.8131 21.2365 16.9168 22.4284C15.3459 24.5154 14.0045 25.3064 12.2386 25.3064C10.1438 25.3064 8.81908 24.4014 7.99868 23.0376C7.32895 21.9263 7 20.4681 7 18.8066L10.0591 18.9157Z" fill="#006B40"/>
<path d="M9.40991 10.2041C10.8124 8.04735 12.8363 6.53906 15.1577 6.53906C16.5021 6.53906 17.8386 6.93602 19.2342 8.07288C20.7607 9.31587 22.3878 11.3626 24.4177 14.7358L25.1455 15.9463C26.9025 18.8665 27.9022 20.3689 28.4872 21.0774C29.2397 21.9872 29.7666 22.2584 30.4511 22.2584C32.1875 22.2584 32.6208 20.6666 32.6208 18.8449L35.3194 18.7604C35.3194 20.6647 34.9432 22.0639 34.303 23.1692C33.6844 24.2383 32.4789 25.3064 30.4511 25.3064C29.1905 25.3064 28.0736 25.0332 26.8385 23.8709C25.8891 22.9787 24.7791 21.3938 23.9252 19.969L21.3852 15.736C20.1107 13.6117 18.9417 12.0277 18.265 11.3105C17.5372 10.5391 16.6016 9.60764 15.1085 9.60764C13.9001 9.60764 12.8738 10.4537 12.0149 11.7477L9.40991 10.2041Z" fill="#0A211F"/>
<path d="M15.1105 9.60764C13.9021 9.60764 12.8758 10.4537 12.017 11.7477C10.8027 13.5764 10.0591 16.3 10.0591 18.9157C10.0591 19.9945 10.2964 20.8229 10.6067 21.324L7.99868 23.0376C7.32895 21.9263 7 20.4681 7 18.8066C7 15.7852 7.83125 12.636 9.41196 10.2041C10.8145 8.04735 12.8384 6.53906 15.1598 6.53906L15.1105 9.60764Z" fill="#006B40"/>
<path d="M41.2656 7.13184H44.8043L50.821 17.9913L56.8387 7.13184H60.3006V24.9755H57.4139V11.3L52.1368 20.7701H49.4284L44.1523 11.3V24.9755H41.2656V7.13184ZM69.3458 13.7849C67.2756 13.7849 66.0287 15.3393 65.7303 17.2642H72.7565C72.6117 15.2813 71.4653 13.7849 69.3458 13.7849ZM62.8682 18.3608C62.8682 14.3106 65.492 11.3628 69.396 11.3628C73.2361 11.3628 75.5289 14.2733 75.5289 18.577V19.368H65.7303C66.0779 21.4618 67.4706 22.8728 69.7161 22.8728C71.5076 22.8728 72.6274 22.3275 73.6892 21.3302L75.2226 23.2039C73.7778 24.5294 71.94 25.2939 69.6137 25.2939C65.3875 25.2939 62.8682 22.2194 62.8682 18.3608ZM79.0295 14.0404H76.3723V11.6822H79.0295V7.78231H81.8148V11.6822H85.8514V14.0404H81.8148V20.0174C81.8148 22.0582 82.4683 22.7834 84.0759 22.7834C84.8093 22.7834 85.2302 22.7205 85.8514 22.6173V24.95C85.0773 25.1681 84.3387 25.2683 83.539 25.2683C80.5325 25.2683 79.0295 23.6294 79.0295 20.3485V14.0404ZM97.5795 16.3338C97.0201 14.9247 95.7724 13.8871 93.9382 13.8871C91.5551 13.8871 90.0296 15.5742 90.0296 18.3225C90.0296 21.002 91.4339 22.7706 93.8245 22.7706C95.7031 22.7706 97.0449 21.6799 97.5795 20.323V16.3338ZM100.365 24.9755H97.6307V23.1146C96.8665 24.2101 95.4757 25.2939 93.2236 25.2939C89.6011 25.2939 87.1804 22.2685 87.1804 18.3225C87.1804 14.3391 89.6591 11.3628 93.3772 11.3628C95.2152 11.3628 96.6564 12.0959 97.6307 13.3899V11.6822H100.365V24.9755Z" fill="#0A211F"/>
</svg>
