<svg width="54" height="38" viewBox="0 0 54 38" fill="none" xmlns="http://www.w3.org/2000/svg">
<path d="M14.0049 0.320312C17.3366 0.316171 20.3034 1.90546 22.1797 4.36133C23.8885 2.58383 26.2627 1.4796 28.8945 1.47949C32.3896 1.47949 35.4385 3.4293 37.0615 6.32324C38.5135 5.67412 40.0863 5.33891 41.6768 5.33984C47.9799 5.33984 53.0898 10.4969 53.0898 16.8516C53.0897 23.2104 47.9798 28.3672 41.6768 28.3672C40.9085 28.3672 40.1574 28.2895 39.4277 28.1436C37.998 30.6939 35.2712 32.4159 32.1455 32.416C30.8359 32.416 29.5986 32.1152 28.4951 31.5742C27.0439 34.9833 23.6696 37.3749 19.7324 37.375C15.632 37.375 12.1414 34.7813 10.8018 31.1445C10.2179 31.269 9.60785 31.334 8.98535 31.334C4.10343 31.334 0.148438 27.3364 0.148438 22.4072C0.148449 19.1013 1.92611 16.2163 4.56641 14.6748C4.00561 13.3867 3.71776 11.9957 3.7207 10.5908C3.72082 4.91896 8.32441 0.320312 14.0049 0.320312ZM30.9775 13.2578C30.4237 13.2578 29.9859 13.4165 29.6768 13.7256C29.3719 14.0347 29.1659 14.5032 29.0586 15.1172L29.0195 15.3232H28.3242C28.3242 15.3232 28.2379 15.3186 28.2207 15.4131L28.1055 16.0527C28.0969 16.1128 28.1225 16.1514 28.2041 16.1514H28.8818L28.1953 19.9902C28.1438 20.2993 28.0794 20.5529 28.0107 20.7461C27.9421 20.9349 27.8774 21.0763 27.7959 21.1836C27.7186 21.2823 27.6454 21.3555 27.5166 21.3984C27.4093 21.4327 27.2892 21.4502 27.1562 21.4502C27.0833 21.4502 26.9841 21.4367 26.9111 21.4238C26.8385 21.411 26.7997 21.3944 26.7441 21.373C26.7441 21.373 26.6672 21.3429 26.6328 21.4199C26.607 21.4843 26.4267 21.9829 26.4053 22.043C26.384 22.103 26.4136 22.1498 26.4521 22.167C26.5423 22.197 26.6113 22.219 26.7314 22.249C26.9029 22.2876 27.0444 22.292 27.1816 22.292C27.465 22.292 27.7232 22.2531 27.9336 22.1758C28.1482 22.0985 28.3326 21.9606 28.5 21.7803C28.6802 21.5828 28.7921 21.377 28.8994 21.0938C29.0067 20.8147 29.0969 20.4669 29.1699 20.0635L29.8613 16.1514H30.8701C30.8701 16.1514 30.9564 16.156 30.9736 16.0615L31.0889 15.4219C31.0975 15.3618 31.0718 15.3232 30.9902 15.3232H30.0068C30.0111 15.3018 30.0584 14.9538 30.1699 14.6318C30.2171 14.4946 30.3076 14.3829 30.3848 14.3057C30.462 14.2284 30.5482 14.1765 30.6426 14.1465C30.7413 14.1164 30.8491 14.0996 30.9736 14.0996C31.0637 14.0996 31.158 14.1079 31.2266 14.125C31.321 14.1465 31.36 14.1555 31.3857 14.1641C31.4842 14.1939 31.5014 14.1634 31.5186 14.1162L31.7549 13.4727C31.7806 13.3998 31.7208 13.369 31.6992 13.3604C31.6006 13.3303 31.5102 13.3095 31.3945 13.2881C31.2786 13.2666 31.1364 13.2578 30.9775 13.2578ZM9.62598 15.2236C8.63424 15.2236 7.93863 15.825 7.93848 16.6836V16.7012C7.93854 17.6069 8.70206 17.9033 9.41895 18.1094L9.53516 18.1436C10.059 18.3024 10.5098 18.4446 10.5098 18.8096V18.8262C10.5098 19.161 10.2182 19.4149 9.74609 19.415C9.56147 19.415 8.97687 19.4101 8.3457 19.0107C8.26875 18.968 8.22589 18.9337 8.16602 18.8994C8.13601 18.878 8.05884 18.8481 8.02441 18.9463L7.81738 19.5352C7.78337 19.6206 7.83022 19.6381 7.83887 19.6553C7.93758 19.7282 8.04093 19.7798 8.13965 19.8398C8.68065 20.1275 9.1879 20.209 9.72461 20.209C10.8106 20.2089 11.4843 19.6293 11.4844 18.7021V18.6846C11.4843 17.826 10.7248 17.5123 10.0078 17.2891L9.91309 17.2588C9.37658 17.0828 8.9084 16.9329 8.9082 16.5811V16.5635C8.90831 16.2587 9.17898 16.0352 9.59961 16.0352C10.0675 16.0352 10.6212 16.1903 10.9775 16.3877C10.9775 16.3877 11.0814 16.4564 11.1201 16.3535C11.1416 16.2977 11.3217 15.8123 11.3389 15.7607C11.3603 15.705 11.3214 15.6621 11.2871 15.6406C10.8792 15.3916 10.3164 15.2236 9.73242 15.2236H9.62598ZM25.5254 15.2236C24.5337 15.2236 23.838 15.825 23.8379 16.6836V16.7012C23.838 17.607 24.6023 17.9033 25.3193 18.1094L25.4346 18.1436C25.9584 18.3024 26.4092 18.4446 26.4092 18.8096V18.8262C26.4092 19.161 26.1177 19.4149 25.6455 19.415C25.4609 19.415 24.8763 19.4101 24.2451 19.0107C24.1682 18.968 24.1253 18.9337 24.0654 18.8994C24.044 18.8866 23.954 18.8524 23.9238 18.9463L23.7178 19.5352C23.6835 19.6209 23.7307 19.6381 23.7393 19.6553C23.8378 19.7281 23.9405 19.7799 24.0391 19.8398C24.5801 20.1275 25.0873 20.209 25.624 20.209C26.7101 20.2089 27.3837 19.6294 27.3838 18.7021V18.6846C27.3837 17.826 26.6242 17.5123 25.9072 17.2891L25.8125 17.2588C25.276 17.0828 24.8078 16.9329 24.8076 16.5811V16.5635C24.8077 16.2588 25.0785 16.0352 25.499 16.0352C25.967 16.0352 26.5216 16.1902 26.8779 16.3877C26.8843 16.3918 26.9821 16.453 27.0195 16.3535C27.041 16.2977 27.2211 15.8123 27.2383 15.7607C27.2597 15.7049 27.2209 15.6621 27.1865 15.6406C26.7787 15.3917 26.2166 15.2237 25.6328 15.2236H25.5254ZM21.1279 15.2324C20.7461 15.2325 20.3985 15.2967 20.1152 15.4297C19.8319 15.5628 19.5952 15.7432 19.4062 15.9707C19.2216 16.194 19.0804 16.4651 18.9902 16.7656C18.9001 17.0661 18.8565 17.3965 18.8564 17.7441C18.8564 18.0962 18.904 18.4274 18.9941 18.7236C19.0886 19.024 19.2388 19.286 19.4404 19.5049C19.6422 19.7239 19.9004 19.8954 20.2139 20.0156C20.523 20.1358 20.8968 20.1963 21.3262 20.1963C22.2097 20.1919 22.6776 19.9947 22.8711 19.8916C22.9054 19.8744 22.9361 19.8396 22.8975 19.7451L22.6953 19.1826C22.6652 19.1013 22.5791 19.1309 22.5791 19.1309C22.3601 19.2125 22.0466 19.3584 21.3213 19.3584C20.8448 19.3584 20.4924 19.217 20.2734 18.998C20.0461 18.7748 19.9342 18.4443 19.917 17.9766L22.9873 17.9805C22.9873 17.9805 23.0683 17.9805 23.0771 17.8994C23.0771 17.8565 23.1807 17.2595 22.9834 16.5684C22.9061 16.2764 22.7173 15.9837 22.5928 15.8506C22.3953 15.6359 22.202 15.4898 22.0088 15.4082C21.7303 15.2905 21.4302 15.2309 21.1279 15.2324ZM45.6963 15.2324C45.3145 15.2325 44.9668 15.2967 44.6836 15.4297C44.4002 15.5628 44.1635 15.7432 43.9746 15.9707C43.79 16.194 43.6488 16.4651 43.5586 16.7656C43.4685 17.0661 43.4258 17.3965 43.4258 17.7441C43.4258 18.0962 43.4723 18.4274 43.5625 18.7236C43.657 19.0241 43.808 19.2859 44.0098 19.5049C44.2115 19.7237 44.4689 19.8954 44.7822 20.0156C45.0914 20.1358 45.4652 20.1963 45.8945 20.1963C46.7788 20.192 47.2472 19.9946 47.4404 19.8916C47.4747 19.8744 47.5044 19.8394 47.4658 19.7451L47.2637 19.1826C47.2349 19.105 47.1556 19.1285 47.1484 19.1309C46.9295 19.2124 46.6153 19.3584 45.8896 19.3584C45.4133 19.3583 45.0617 19.2169 44.8428 18.998C44.6153 18.7748 44.5035 18.4444 44.4863 17.9766L47.5557 17.9805C47.5557 17.9805 47.6377 17.9806 47.6465 17.8994C47.6508 17.8565 47.7531 17.2595 47.5557 16.5684C47.4784 16.2764 47.2899 15.9837 47.1611 15.8506C46.9636 15.6359 46.7703 15.4898 46.5771 15.4082C46.2987 15.2905 45.9986 15.2309 45.6963 15.2324ZM14.1035 15.2236C13.8718 15.2237 13.5031 15.2546 13.2842 15.3018C13.2842 15.3018 12.6137 15.4298 12.3389 15.6445C12.337 15.6457 12.2799 15.6845 12.3135 15.7646L12.5322 16.3486C12.5573 16.4238 12.627 16.4017 12.6309 16.4004C12.6309 16.4004 12.6526 16.3921 12.6826 16.375C13.2676 16.0571 13.999 16.0614 14.0176 16.0615C14.3482 16.0615 14.6066 16.1257 14.7783 16.2588C14.9456 16.3876 15.0312 16.5809 15.0312 16.9883V17.1172C14.7651 17.0834 14.5281 17.0622 14.5205 17.0615C14.396 17.0529 14.2323 17.0488 14.0391 17.0488C13.7774 17.0489 13.5244 17.0832 13.2842 17.1475C13.0437 17.2119 12.8282 17.3112 12.6436 17.4443C12.4592 17.5774 12.3088 17.7486 12.1973 17.9502C12.0899 18.152 12.0342 18.393 12.0342 18.6592C12.0342 18.9294 12.0815 19.1653 12.1758 19.3584C12.2702 19.5516 12.4034 19.7153 12.5752 19.8398C12.7469 19.9644 12.9574 20.0545 13.2021 20.1104C13.4426 20.1662 13.7174 20.1914 14.0137 20.1914C14.3271 20.1914 14.6405 20.1658 14.9453 20.1143C15.2455 20.0628 15.6142 19.9897 15.7178 19.9639C15.8181 19.9388 15.927 19.9097 15.9326 19.9082C16.0099 19.891 16.002 19.8096 16.002 19.8096V17.002C16.002 16.388 15.838 15.9285 15.5117 15.6494C15.1897 15.3661 14.7175 15.2236 14.1035 15.2236ZM33.3955 15.2324C33.0263 15.2324 32.6996 15.297 32.4248 15.4258C32.1458 15.5546 31.9141 15.7352 31.7295 15.9541C31.545 16.1773 31.4075 16.4389 31.3174 16.7393C31.2272 17.0398 31.1846 17.3671 31.1846 17.7148C31.1846 18.0625 31.2273 18.389 31.3174 18.6895C31.4075 18.9898 31.545 19.2557 31.7295 19.4746C31.9141 19.6979 32.15 19.8745 32.4248 19.999C32.7039 20.1235 33.0306 20.1875 33.3955 20.1875C33.7644 20.1875 34.0906 20.1234 34.3652 19.999C34.64 19.8745 34.8769 19.6936 35.0615 19.4746C35.246 19.2558 35.3835 18.9898 35.4736 18.6895C35.5638 18.389 35.6064 18.0625 35.6064 17.7148C35.6064 17.3671 35.5638 17.0355 35.4736 16.7393C35.3835 16.4389 35.246 16.173 35.0615 15.9541C34.873 15.7273 34.6344 15.5464 34.3652 15.4258C34.0906 15.2971 33.7602 15.2324 33.3955 15.2324ZM41.7549 15.2197C41.3728 15.2198 41.0337 15.2843 40.7461 15.4131C40.4585 15.5419 40.2098 15.7182 40.0166 15.9414C39.8183 16.1711 39.6678 16.4379 39.5742 16.7266C39.4755 17.027 39.4278 17.3535 39.4277 17.7012C39.4277 18.4525 39.6296 19.0626 40.0332 19.5049C40.4325 19.9514 41.0385 20.1787 41.8242 20.1787C42.2878 20.1787 42.764 20.0842 43.1074 19.9512C43.1074 19.9512 43.1722 19.921 43.1465 19.8438L42.9189 19.2344C42.8889 19.1442 42.8027 19.1787 42.8027 19.1787C42.6697 19.2302 42.5321 19.2774 42.3818 19.2988C42.2316 19.3203 42.064 19.333 41.8838 19.333C41.4459 19.333 41.098 19.2039 40.8447 18.9463C40.5959 18.6887 40.4541 18.2725 40.4541 17.7061C40.4541 17.1908 40.5785 16.8037 40.8018 16.5117C41.0207 16.2199 41.3602 16.0703 41.8066 16.0703C42.18 16.0703 42.4676 16.1127 42.7637 16.207C42.7637 16.207 42.8367 16.237 42.8711 16.1426C42.9484 15.9237 43.0089 15.7648 43.0947 15.5244C43.1204 15.4558 43.0605 15.4256 43.0391 15.417C42.9231 15.3698 42.644 15.2967 42.4336 15.2666C42.2361 15.2365 42.0082 15.2197 41.7549 15.2197ZM17.0879 13.3525C17.0365 13.3525 17.0021 13.3949 17.002 13.4463V19.9941C17.002 20.0457 17.0364 20.0889 17.0879 20.0889H17.9033C17.9548 20.0889 17.9932 20.0457 17.9932 19.9941V13.4463C17.993 13.3949 17.9547 13.3525 17.9033 13.3525H17.0879ZM38.707 15.2803C38.3209 15.2588 38.1058 15.3224 37.917 15.4082C37.7281 15.4941 37.5177 15.6322 37.3975 15.791V15.417C37.3973 15.3656 37.3581 15.3232 37.3066 15.3232H36.5215C36.47 15.3232 36.4308 15.3656 36.4307 15.417V19.9941C36.4307 20.0457 36.4739 20.0888 36.5254 20.0889H37.333C37.3844 20.0887 37.4268 20.0455 37.4268 19.9941V17.7061C37.4268 17.4012 37.4616 17.0917 37.5303 16.8984C37.5947 16.7096 37.6892 16.5546 37.8008 16.4473C37.9123 16.3401 38.0414 16.2626 38.1787 16.2197C38.3203 16.1769 38.4793 16.1602 38.5908 16.1602C38.7469 16.1602 38.9236 16.2017 38.9297 16.2031C38.9898 16.2117 39.0205 16.1726 39.042 16.1211C39.0894 15.9833 39.2395 15.5629 39.2695 15.4814C39.2779 15.4605 39.2774 15.4368 39.2686 15.416C39.2597 15.3951 39.2427 15.3787 39.2217 15.3701C39.1699 15.3486 38.9086 15.2932 38.707 15.2803ZM14.1943 17.8213C14.6322 17.8256 15.0273 17.8945 15.0273 17.8945V19.29C15.0273 19.29 14.6362 19.3713 14.1982 19.4014C13.5714 19.4357 13.2969 19.2168 13.2969 19.2168C13.1767 19.1223 13.1588 19.0972 13.1201 19.0371C13.06 18.9427 13.0303 18.8094 13.0303 18.6377C13.0303 18.3672 13.121 18.1737 13.3057 18.0449C13.3132 18.0352 13.5813 17.8129 14.1943 17.8213ZM33.3955 16.0615C33.799 16.0616 34.0871 16.1987 34.2803 16.4863C34.4691 16.774 34.5674 17.1868 34.5674 17.7148C34.5673 18.2383 34.4685 18.6544 34.2754 18.9463C34.0865 19.2339 33.7947 19.3759 33.3955 19.376C32.9919 19.376 32.7036 19.234 32.5146 18.9463C32.326 18.6544 32.2276 18.2382 32.2275 17.7148C32.2275 17.1911 32.3215 16.7783 32.5146 16.4863C32.7036 16.1987 32.9919 16.0615 33.3955 16.0615ZM21.0557 16.0352C21.4591 16.0353 21.7252 16.1948 21.9141 16.4824C22.0385 16.6713 22.0948 16.9248 22.1162 17.208H19.9307C19.9736 16.9161 20.0552 16.6713 20.1797 16.4824C20.3686 16.1947 20.6521 16.0352 21.0557 16.0352ZM45.6328 16.0352C46.0362 16.0353 46.3024 16.1949 46.4912 16.4824C46.6199 16.6713 46.6719 16.9248 46.6934 17.208H44.5078C44.5507 16.9161 44.6323 16.6713 44.7568 16.4824C44.9458 16.1947 45.2292 16.0352 45.6328 16.0352Z" fill="#0A211F"/>
</svg>
